<svg width="24" height="24" viewBox="0 0 24 24" fill="none" xmlns="http://www.w3.org/2000/svg">
<g clip-path="url(#clip0_1761_94)">
<path fill-rule="evenodd" clip-rule="evenodd" d="M2.1001 23.3103C2.1001 17.0289 6.44703 11.8262 12.0001 11.8262C17.5532 11.8262 21.9001 17.0289 21.9001 23.3103V24.0002H2.1001V23.3103ZM3.51915 22.6205H20.481C20.1812 17.2176 16.3825 13.2059 12.0001 13.2059C7.61773 13.2059 3.81904 17.2176 3.51915 22.6205Z" fill="#333333"/>
<path fill-rule="evenodd" clip-rule="evenodd" d="M6.85303 5.16111C6.85303 2.3237 9.1431 0 11.999 0C14.8539 0 17.145 2.3236 17.145 5.16111C17.145 7.99863 14.8539 10.3222 11.999 10.3222C9.1431 10.3222 6.85303 7.99853 6.85303 5.16111ZM11.999 1.37971C9.94296 1.37971 8.25303 3.05915 8.25303 5.16111C8.25303 7.26307 9.94296 8.94252 11.999 8.94252C14.0542 8.94252 15.745 7.26297 15.745 5.16111C15.745 3.05926 14.0542 1.37971 11.999 1.37971Z" fill="#333333"/>
</g>
<defs>
<clipPath id="clip0_1761_94">
<rect width="24" height="24" fill="white"/>
</clipPath>
</defs>
</svg>
